<svg width="16" height="16" viewBox="0 0 16 16" fill="none" xmlns="http://www.w3.org/2000/svg">
<path fill-rule="evenodd" clip-rule="evenodd" d="M6.194 10.4052C8.96075 10.4052 11.3255 10.8244 11.3255 12.4992C11.3255 14.1739 8.9765 14.6052 6.194 14.6052C3.4265 14.6052 1.0625 14.1897 1.0625 12.5142C1.0625 10.8387 3.41075 10.4052 6.194 10.4052Z" stroke="#5F60B9" stroke-width="1.2" stroke-linecap="round" stroke-linejoin="round"/>
<path fill-rule="evenodd" clip-rule="evenodd" d="M6.1938 8.01488C4.3773 8.01488 2.9043 6.54263 2.9043 4.72613C2.9043 2.90963 4.3773 1.43738 6.1938 1.43738C8.00955 1.43738 9.48255 2.90963 9.48255 4.72613C9.4893 6.53588 8.0268 8.00813 6.21705 8.01488H6.1938Z" stroke="#5F60B9" stroke-width="1.2" stroke-linecap="round" stroke-linejoin="round"/>
<path d="M11.3623 7.16121C12.5631 6.99246 13.4878 5.96196 13.4901 4.71471C13.4901 3.48546 12.5938 2.46546 11.4186 2.27271" stroke="#5F60B9" stroke-width="1.2" stroke-linecap="round" stroke-linejoin="round"/>
<path d="M12.9473 10.0492C14.1105 10.2224 14.9228 10.6304 14.9228 11.4704C14.9228 12.0487 14.5403 12.4237 13.9223 12.6584" stroke="#5F60B9" stroke-width="1.2" stroke-linecap="round" stroke-linejoin="round"/>
</svg>
