<svg width="20" height="21" viewBox="0 0 20 21" fill="none" xmlns="http://www.w3.org/2000/svg">
<path fill-rule="evenodd" clip-rule="evenodd" d="M2.5 5.91667C2.5 3.72899 2.52342 3 5.41667 3C8.30991 3 8.33333 3.72899 8.33333 5.91667C8.33333 8.10434 8.34256 8.83333 5.41667 8.83333C2.49077 8.83333 2.5 8.10434 2.5 5.91667Z" stroke="white" stroke-width="1.5" stroke-linecap="round" stroke-linejoin="round"/>
<path fill-rule="evenodd" clip-rule="evenodd" d="M11.6665 5.91667C11.6665 3.72899 11.6899 3 14.5832 3C17.4764 3 17.4998 3.72899 17.4998 5.91667C17.4998 8.10434 17.5091 8.83333 14.5832 8.83333C11.6573 8.83333 11.6665 8.10434 11.6665 5.91667Z" stroke="white" stroke-width="1.5" stroke-linecap="round" stroke-linejoin="round"/>
<path fill-rule="evenodd" clip-rule="evenodd" d="M2.5 15.0833C2.5 12.8956 2.52342 12.1666 5.41667 12.1666C8.30991 12.1666 8.33333 12.8956 8.33333 15.0833C8.33333 17.271 8.34256 18 5.41667 18C2.49077 18 2.5 17.271 2.5 15.0833Z" stroke="white" stroke-width="1.5" stroke-linecap="round" stroke-linejoin="round"/>
<path fill-rule="evenodd" clip-rule="evenodd" d="M11.6665 15.0833C11.6665 12.8956 11.6899 12.1666 14.5832 12.1666C17.4764 12.1666 17.4998 12.8956 17.4998 15.0833C17.4998 17.271 17.5091 18 14.5832 18C11.6573 18 11.6665 17.271 11.6665 15.0833Z" stroke="white" stroke-width="1.5" stroke-linecap="round" stroke-linejoin="round"/>
</svg>
