<svg width="16" height="16" viewBox="0 0 16 16" fill="none" xmlns="http://www.w3.org/2000/svg">
<path fill-rule="evenodd" clip-rule="evenodd" d="M12.7144 12.7132C10.677 14.7509 7.66001 15.1911 5.19111 14.0493C4.82663 13.9026 4.52782 13.784 4.24374 13.784C3.45249 13.7887 2.46761 14.5559 1.95574 14.0446C1.44387 13.5327 2.21167 12.547 2.21167 11.751C2.21167 11.4669 2.09777 11.1734 1.95105 10.8082C0.808717 8.33973 1.24957 5.32177 3.287 3.28478C5.88789 0.682934 10.1135 0.682934 12.7144 3.28411C15.32 5.88998 15.3153 10.112 12.7144 12.7132Z" stroke="#1C1F34" stroke-width="1.5" stroke-linecap="round" stroke-linejoin="round"/>
<path d="M10.6262 8.27529H10.6322" stroke="#1C1F34" stroke-width="1.5" stroke-linecap="round" stroke-linejoin="round"/>
<path d="M7.95387 8.27529H7.95987" stroke="#1C1F34" stroke-width="1.5" stroke-linecap="round" stroke-linejoin="round"/>
<path d="M5.28102 8.27529H5.28702" stroke="#1C1F34" stroke-width="1.5" stroke-linecap="round" stroke-linejoin="round"/>
</svg>
