<svg width="18" height="18" viewBox="0 0 18 18" fill="none" xmlns="http://www.w3.org/2000/svg">
<g id="Iconly/Light/Discount">
<g id="Discount">
<path id="Stroke 1" d="M3.59607 5.29198C3.59607 4.35523 4.35507 3.59623 5.29182 3.59548H6.06357C6.51132 3.59548 6.94032 3.41773 7.25832 3.10273L7.79757 2.56273C8.45832 1.89823 9.53232 1.89523 10.1968 2.55598L10.1976 2.55673L10.2043 2.56273L10.7443 3.10273C11.0623 3.41848 11.4913 3.59548 11.9391 3.59548H12.7101C13.6468 3.59548 14.4066 4.35448 14.4066 5.29198V6.06223C14.4066 6.50998 14.5836 6.93973 14.8993 7.25773L15.4393 7.79773C16.1038 8.45848 16.1076 9.53248 15.4468 10.197L15.4461 10.1977L15.4393 10.2045L14.8993 10.7445C14.5836 11.0617 14.4066 11.4907 14.4066 11.9385V12.7102C14.4066 13.647 13.6476 14.406 12.7108 14.406H12.7101H11.9376C11.4898 14.406 11.0601 14.5837 10.7428 14.8995L10.2028 15.4387C9.54282 16.1032 8.46957 16.107 7.80507 15.4477C7.80432 15.447 7.80357 15.4462 7.80282 15.4455L7.79607 15.4387L7.25682 14.8995C6.93957 14.5837 6.50982 14.4067 6.06207 14.406H5.29182C4.35507 14.406 3.59607 13.647 3.59607 12.7102V11.937C3.59607 11.4892 3.41832 11.0602 3.10257 10.743L2.56332 10.203C1.89882 9.54298 1.89507 8.46973 2.55507 7.80523C2.55507 7.80448 2.55582 7.80373 2.55657 7.80298L2.56332 7.79623L3.10257 7.25623C3.41832 6.93823 3.59607 6.50923 3.59607 6.06073V5.29198" stroke="#5F60B9" stroke-width="1.2" stroke-linecap="round" stroke-linejoin="round"/>
<path id="Stroke 3" d="M7.07324 10.9287L10.9282 7.07373" stroke="#5F60B9" stroke-width="1.2" stroke-linecap="round" stroke-linejoin="round"/>
<path id="Stroke 11" d="M10.8716 10.875H10.8784" stroke="#5F60B9" stroke-width="1.2" stroke-linecap="round" stroke-linejoin="round"/>
<path id="Stroke 11_2" d="M7.12162 7.125H7.12837" stroke="#5F60B9" stroke-width="1.2" stroke-linecap="round" stroke-linejoin="round"/>
</g>
</g>
</svg>
