<svg width="16" height="15" viewBox="0 0 16 15" fill="none" xmlns="http://www.w3.org/2000/svg">
<path fill-rule="evenodd" clip-rule="evenodd" d="M8.00627 0.0267005C7.03315 0.136239 5.8866 0.52773 5.07622 1.02711C3.80868 1.80822 2.7097 3.06772 2.19714 4.32669C2.11861 4.51964 2.04395 4.67772 2.03119 4.67802C2.01846 4.67832 1.89372 4.4547 1.75396 4.18115C1.6142 3.90761 1.45894 3.6287 1.40894 3.56143C1.1991 3.27913 0.742179 3.18968 0.419946 3.3678C0.170726 3.50557 0.0341228 3.72588 0.0153534 4.02023L0 4.2613L0.857911 5.9418C1.32977 6.86608 1.75437 7.66813 1.80149 7.72414C1.99616 7.95545 2.40672 8.04746 2.69911 7.92531C2.77366 7.89415 3.46149 7.51129 4.22762 7.07453C5.7562 6.20307 5.89775 6.09807 5.97426 5.77914C6.11754 5.18194 5.53288 4.63586 4.96289 4.83455C4.89438 4.85847 4.52023 5.06012 4.13144 5.28277C3.70418 5.52744 3.42451 5.6672 3.42451 5.63608C3.42451 5.54726 3.63852 4.99954 3.79423 4.68984C4.06748 4.14636 4.39027 3.70786 4.86735 3.23214C5.68311 2.41867 6.57604 1.939 7.74237 1.68768C7.99062 1.63419 8.22553 1.61913 8.81133 1.61913C9.46022 1.61913 9.61499 1.63096 9.95179 1.70637C11.6732 2.09182 13.0465 3.15818 13.8256 4.71454C14.6006 6.26257 14.5991 8.13008 13.8217 9.67698C13.0377 11.2369 11.6743 12.2952 9.95179 12.6809C9.61499 12.7563 9.46022 12.7681 8.81133 12.7681C7.97271 12.7681 7.71576 12.7297 7.02985 12.5015C5.84047 12.1058 4.82257 11.3198 4.11838 10.2533C3.76859 9.72364 3.59775 9.59612 3.23794 9.59612C3.04728 9.59612 2.71128 9.77435 2.60801 9.93025C2.38454 10.2675 2.40699 10.5474 2.6942 11.0049C4.15723 13.3352 6.79906 14.6361 9.5112 14.3617C11.152 14.1958 12.5968 13.5265 13.7952 12.3774C15.2243 11.0069 16 9.18308 16 7.19364C16 5.66059 15.5498 4.25631 14.6486 2.97864C14.3488 2.55355 13.5396 1.73141 13.1095 1.41503C12.1882 0.737159 11.1441 0.288984 10.0313 0.0937071C9.53004 0.00575374 8.49626 -0.0284815 8.00627 0.0267005ZM8.61372 3.21374C8.39877 3.26472 8.208 3.42099 8.10271 3.6323L8.00424 3.8299L8.00507 5.59622C8.00582 7.24222 8.01066 7.37281 8.07609 7.51272C8.12253 7.61197 8.59634 8.11007 9.47358 8.9818C10.9167 10.4159 10.9068 10.4083 11.2944 10.3761C11.8333 10.3315 12.168 9.72022 11.9168 9.2395C11.8723 9.15448 11.3569 8.60919 10.7284 7.98218L9.61841 6.87505V5.41802C9.61841 4.42666 9.60433 3.90506 9.5743 3.78591C9.51375 3.5454 9.25 3.28165 9.00949 3.2211C8.81572 3.1723 8.79045 3.17181 8.61372 3.21374Z" fill="#6C757D"/>
</svg>
