<svg width="20" height="21" viewBox="0 0 20 21" fill="none" xmlns="http://www.w3.org/2000/svg">
<path d="M16.2506 14.3274H11" stroke="white" stroke-width="1.5" stroke-linecap="round" stroke-linejoin="round"/>
<path d="M11 6.25035H16.2506" stroke="white" stroke-width="1.5" stroke-linecap="round" stroke-linejoin="round"/>
<path fill-rule="evenodd" clip-rule="evenodd" d="M6.93857 6.20521C6.93857 5.1255 6.05677 4.25 4.96929 4.25C3.8818 4.25 3 5.1255 3 6.20521C3 7.28492 3.8818 8.16042 4.96929 8.16042C6.05677 8.16042 6.93857 7.28492 6.93857 6.20521Z" stroke="white" stroke-width="1.5" stroke-linecap="round" stroke-linejoin="round"/>
<path fill-rule="evenodd" clip-rule="evenodd" d="M6.93857 14.2948C6.93857 13.2151 6.05745 12.3396 4.96996 12.3396C3.8818 12.3396 3 13.2151 3 14.2948C3 15.3745 3.8818 16.25 4.96996 16.25C6.05745 16.25 6.93857 15.3745 6.93857 14.2948Z" stroke="white" stroke-width="1.5" stroke-linecap="round" stroke-linejoin="round"/>
</svg>
