<svg width="34" height="34" viewBox="0 0 34 34" fill="none" xmlns="http://www.w3.org/2000/svg">
<g id="Iconly/Light-Outline/Image 2">
<g id="Image 2">
<g id="Group 3">
<mask id="mask0_1_2254" style="mask-type:luminance" maskUnits="userSpaceOnUse" x="2" y="2" width="30" height="30">
<path id="Clip 2" fill-rule="evenodd" clip-rule="evenodd" d="M2.83386 2.8335H31.1006V31.1015H2.83386V2.8335Z" fill="white"/>
</mask>
<g mask="url(#mask0_1_2254)">
<path id="Fill 1" fill-rule="evenodd" clip-rule="evenodd" d="M10.8394 4.95837C7.26803 4.95837 4.95886 7.40779 4.95886 11.1974V22.7375C4.95886 26.5285 7.26803 28.9765 10.8394 28.9765H23.0879C26.665 28.9765 28.9756 26.5285 28.9756 22.7375V11.1974C28.9784 9.26646 28.3891 7.65429 27.2728 6.53654C26.2414 5.50379 24.7979 4.95837 23.095 4.95837H10.8394ZM23.0879 31.1015H10.8394C6.05111 31.1015 2.83386 27.7398 2.83386 22.7375V11.1974C2.83386 6.19512 6.05111 2.83337 10.8394 2.83337H23.095C25.373 2.83337 27.3379 3.59412 28.7759 5.03487C30.2789 6.53937 31.1034 8.72812 31.1006 11.1988V22.7375C31.1006 27.7398 27.8805 31.1015 23.0879 31.1015Z" fill="#6C757D"/>
</g>
</g>
<path id="Fill 4" fill-rule="evenodd" clip-rule="evenodd" d="M12.5465 10.8935C11.6908 10.8935 10.9952 11.5891 10.9952 12.4462C10.9952 13.3018 11.6908 13.9974 12.5479 13.9974C13.4036 13.9974 14.1006 13.3018 14.1006 12.4476C14.0992 11.5905 13.4022 10.8949 12.5465 10.8935ZM12.5479 16.1224C10.5192 16.1224 8.87024 14.4734 8.87024 12.4462C8.87024 10.4175 10.5192 8.76849 12.5479 8.76849C14.5752 8.76991 16.2242 10.4189 16.2256 12.4447V12.4462C16.2256 14.4734 14.5766 16.1224 12.5479 16.1224Z" fill="#6C757D"/>
<path id="Fill 6" fill-rule="evenodd" clip-rule="evenodd" d="M5.31099 28.4911C5.13532 28.4911 4.95682 28.4471 4.79249 28.3551C4.27966 28.0675 4.09974 27.4201 4.38591 26.9086C4.47091 26.7556 6.50382 23.1616 8.74074 21.3199C10.5144 19.8607 12.4241 20.6626 13.9626 21.31C14.8678 21.6911 15.7235 22.0509 16.5452 22.0509C17.2988 22.0509 18.2437 20.7192 19.0796 19.5448C20.2398 17.9071 21.5573 16.0541 23.4868 16.0541C26.561 16.0541 29.2144 18.7968 30.641 20.2701L30.8053 20.4401C31.2133 20.8609 31.2034 21.5338 30.7827 21.9432C30.3647 22.3526 29.6918 22.3427 29.281 21.9206L29.1138 21.7477C27.9068 20.4996 25.66 18.1791 23.4868 18.1791C22.6538 18.1791 21.6763 19.5576 20.8107 20.7745C19.6236 22.4461 18.3953 24.1759 16.5452 24.1759C15.2942 24.1759 14.1482 23.6942 13.1381 23.2678C11.5316 22.5906 10.8034 22.3739 10.0908 22.9604C8.15849 24.5527 6.25732 27.9159 6.23891 27.9485C6.04482 28.2956 5.68357 28.4911 5.31099 28.4911Z" fill="#6C757D"/>
</g>
</g>
</svg>
