<svg width="20" height="20" viewBox="0 0 20 20" fill="none" xmlns="http://www.w3.org/2000/svg">
<path d="M11.5412 3.54192V5.55858" stroke="#6C757D" stroke-width="1.5" stroke-linecap="round" stroke-linejoin="round"/>
<path d="M11.5412 14.8001V16.4867" stroke="#6C757D" stroke-width="1.5" stroke-linecap="round" stroke-linejoin="round"/>
<path d="M11.5412 11.9372V7.91966" stroke="#6C757D" stroke-width="1.5" stroke-linecap="round" stroke-linejoin="round"/>
<path fill-rule="evenodd" clip-rule="evenodd" d="M15.5849 16.6667C17.1033 16.6667 18.3332 15.4521 18.3332 13.9526V11.7922C17.3284 11.7922 16.5193 10.9931 16.5193 10.0009C16.5193 9.00862 17.3284 8.20866 18.3332 8.20866L18.3323 6.04737C18.3323 4.54787 17.1016 3.33333 15.5841 3.33333H4.4156C2.89808 3.33333 1.66737 4.54787 1.66737 6.04737L1.6665 8.27904C2.67123 8.27904 3.4804 9.00862 3.4804 10.0009C3.4804 10.9931 2.67123 11.7922 1.6665 11.7922V13.9526C1.6665 15.4521 2.89634 16.6667 4.41473 16.6667H15.5849Z" stroke="#6C757D" stroke-width="1.5" stroke-linecap="round" stroke-linejoin="round"/>
</svg>
